<svg width="236" height="90" fill="none" xmlns="http://www.w3.org/2000/svg"><g clip-path="url(#clip0)"><path d="M134.24 56.76H101V90h33.24V56.76z" fill="red"/><path d="M127.631 61.425h-2.139v10.497h2.139V61.426zm-15.357 6.998a3.484 3.484 0 01-3.499 3.5 3.485 3.485 0 01-3.499-3.5v-6.998h2.139v6.998c0 .778.583 1.361 1.36 1.361.778 0 1.361-.583 1.361-1.36v-6.999h2.138v6.998zm9.72 17.107h-6.998V75.031h2.138v8.359h4.86v2.138zm0-13.608h-1.944l-2.916-6.026v6.026h-2.138V61.426h2.138l2.916 5.831v-5.832h1.944v10.497zM110.136 82.03c0 .778-.583 1.36-1.361 1.36-.777 0-1.36-.582-1.36-1.36v-3.499c0-.777.583-1.36 1.36-1.36.778 0 1.361.583 1.361 1.36v3.5zm-1.361-6.998a3.485 3.485 0 00-3.499 3.5v3.498a3.485 3.485 0 003.499 3.5h.584l.777 2.137h2.138l-.972-3.11c.584-.583.972-1.555.972-2.527v-3.499a3.484 3.484 0 00-3.499-3.499zm19.244 6.998c0 .778-.583 1.36-1.36 1.36a1.329 1.329 0 01-1.361-1.36v-3.499c0-.777.583-1.36 1.361-1.36.777 0 1.36.583 1.36 1.36v3.5zm-1.36-6.998a3.484 3.484 0 00-3.499 3.5v3.498a3.484 3.484 0 003.499 3.5 3.484 3.484 0 003.499-3.5v-3.499a3.484 3.484 0 00-3.499-3.499z" fill="#fff"/><path d="M3.11.389H0v21.188h3.11V.389zm13.218 21.188L11.08 11.274 9.33 7.581v13.996H6.415V.389h2.527l5.054 10.497 1.555 3.887V.39h2.915v21.188h-2.138zm5.637 0V.389h9.72V3.11H24.88v6.22h4.86v2.527h-4.86v6.998h6.804v2.722h-9.72zm17.495.583c-3.499 0-5.831-2.333-5.831-5.443v-1.36h2.915v.971c0 2.139.972 3.305 2.916 3.305s2.721-1.166 2.721-2.722c0-1.943-.777-3.11-3.498-4.665-2.333-1.555-4.86-3.693-4.86-6.609 0-3.11 1.944-5.443 5.637-5.443 3.499 0 5.637 2.333 5.637 5.443v1.36h-2.916V5.833c0-1.75-.777-3.11-2.915-3.11-1.75 0-2.527.971-2.527 2.332 0 1.944.777 2.916 3.887 4.86 3.11 1.943 4.471 3.887 4.471 6.609.195 3.304-2.332 5.637-5.637 5.637zM61.814 6.415c0-1.944-.972-3.11-2.916-3.11h-2.72V19.05h2.72c1.944 0 2.916-1.167 2.916-3.11V6.415zm-2.527 15.162h-6.026V.389h6.026c3.888 0 5.637 2.527 5.637 5.831v9.72c0 3.304-1.75 5.637-5.637 5.637zm8.748 0V.389h9.913V3.11H70.95v6.22h5.054v2.527H70.95v6.998h6.998v2.722h-9.913zm17.689 0V.389h3.11v18.466h6.609v2.722h-9.72zm17.105-16.329l-1.749 8.748h3.499l-1.75-8.748zm3.305 16.329l-1.166-5.054h-4.666l-1.166 5.248H96.22L101.08.583h3.11l4.86 21.188h-2.916v-.194zM119.352 3.11v6.61h5.248v2.526h-5.248v9.33h-2.916V.39h9.72v2.72h-6.804zm17.106 1.944c0-1.166-.583-2.138-1.944-2.138h-3.11v6.998h2.721c1.555 0 2.333-.778 2.333-2.333V5.054zm3.499 16.911c-2.333 0-3.305-.583-3.305-2.915v-4.082c0-1.556-.583-2.527-2.138-2.527h-2.916v9.33h-3.11V.39h6.22c3.499 0 5.054 1.75 5.054 4.665v2.333c0 2.138-.777 3.304-2.721 3.693 1.944.389 2.916 1.944 2.916 3.693v3.888c0 .583.194.777.972.777v2.333h-.972v.194zm2.916-.388V.389h9.719V3.11h-6.804v6.22h5.054v2.527h-5.054v6.998h6.804v2.722h-9.719zm17.494.583c-3.499 0-5.831-2.333-5.831-5.443v-1.36h2.915v.971c0 2.139.972 3.305 2.916 3.305 1.75 0 2.722-1.166 2.722-2.722 0-1.943-.778-3.11-3.499-4.665-2.333-1.555-4.86-3.693-4.86-6.609 0-3.11 1.944-5.443 5.637-5.443 3.499 0 5.637 2.333 5.637 5.443v1.36h-2.915V5.833c0-1.75-.778-3.11-2.916-3.11-1.75 0-2.527.971-2.527 2.332 0 1.944.777 2.916 3.887 4.86 3.111 1.943 4.471 3.887 4.471 6.609.195 3.304-2.332 5.637-5.637 5.637zm13.413 0c-3.499 0-5.832-2.333-5.832-5.443v-1.36h2.916v.971c0 2.139.972 3.305 2.916 3.305s2.721-1.166 2.721-2.722c0-1.943-.777-3.11-3.499-4.665-2.332-1.555-4.859-3.693-4.859-6.609 0-3.11 1.943-5.443 5.637-5.443 3.499 0 5.637 2.333 5.637 5.443v1.36h-2.916V5.833c0-1.75-.777-3.11-2.916-3.11-1.749 0-2.527.971-2.527 2.332 0 1.944.778 2.916 3.888 4.86 3.11 1.943 4.471 3.887 4.471 6.609.194 3.304-2.333 5.637-5.637 5.637zm13.218-16.912l-1.75 8.748h3.499l-1.749-8.748zm3.499 16.329l-1.167-5.249h-4.665l-1.166 5.249h-2.916l4.86-21.188h3.11l4.86 21.188h-2.916zm14.773 0l-5.248-10.303-1.75-3.693v13.996h-2.916V.389h2.527l5.054 10.497 1.75 3.887V.39h2.721v21.188h-2.138zm15.551 0l-.583-1.555c-.778 1.36-2.139 2.138-4.083 2.138-3.693 0-5.442-2.527-5.442-5.832V5.832c0-3.11 1.944-5.832 6.026-5.832s5.637 2.333 5.637 5.832v1.166h-2.916V5.443c0-1.36-.777-2.722-2.721-2.722s-2.916 1.361-2.916 2.916v11.08c0 1.555.972 2.916 2.916 2.916s2.915-1.36 2.915-2.916v-3.304h-2.915V10.69h5.637v10.886h-1.555zm4.471 0V.389h9.913V3.11h-6.803v6.22h4.859v2.527h-4.859v6.998h6.803v2.722h-9.913zM101.08 32.462c0-.583-.194-.972-.972-.972h-1.555v3.5h1.555c.583 0 .972-.39.972-.973v-1.555zm-.972 3.888h-1.555v4.082h-1.36V30.324h2.915c1.555 0 2.333.972 2.333 2.333v1.36c0 1.361-.778 2.333-2.333 2.333zm8.747-3.888l-.777 4.082h1.749l-.972-4.082zm1.75 7.97l-.583-2.527h-2.139l-.583 2.527h-1.36l2.332-10.108h1.555l2.333 10.108h-1.555zm9.525-7.97c0-.583-.195-.972-.972-.972h-1.555v3.305h1.36c.778 0 1.167-.389 1.167-1.166v-1.167zm1.555 7.97c-1.167 0-1.555-.389-1.555-1.36v-1.945c0-.777-.389-1.166-.972-1.166h-1.361v4.471h-1.361V30.324h2.916c1.555 0 2.333.777 2.333 2.333v1.166c0 .972-.389 1.555-1.361 1.75.972.194 1.361.971 1.361 1.749v1.75c0 .194.194.388.388.388v1.166h-.388v-.194zm6.22-10.108h-1.361v10.108h1.361V30.324zm7.387 10.302c-1.75 0-2.722-1.166-2.722-2.527v-.777h1.361v.389c0 .971.389 1.555 1.361 1.555.777 0 1.36-.584 1.36-1.361 0-.972-.389-1.36-1.749-2.333-1.166-.777-2.333-1.75-2.333-3.11 0-1.36.972-2.527 2.722-2.527 1.555 0 2.721 1.167 2.721 2.527v.583h-1.361v-.388c0-.778-.389-1.555-1.36-1.555-.778 0-1.167.388-1.167 1.166 0 .972.389 1.36 1.944 2.332 1.555.972 2.138 1.75 2.138 3.11-.194 1.75-1.36 2.916-2.915 2.916z" fill="#002965"/></g><defs><clipPath id="clip0"><path fill="#fff" d="M0 0h235.205v90H0z"/></clipPath></defs></svg>